<?xml version="1.0" encoding="UTF-8" standalone="no"?>
<svg
   xmlns:dc="http://purl.org/dc/elements/1.1/"
   xmlns:cc="http://creativecommons.org/ns#"
   xmlns:rdf="http://www.w3.org/1999/02/22-rdf-syntax-ns#"
   xmlns:svg="http://www.w3.org/2000/svg"
   xmlns="http://www.w3.org/2000/svg"
   xmlns:sodipodi="http://sodipodi.sourceforge.net/DTD/sodipodi-0.dtd"
   xmlns:inkscape="http://www.inkscape.org/namespaces/inkscape"
   inkscape:version="1.0 (4035a4fb49, 2020-05-01)"
   sodipodi:docname="notification_folder_hover.svg"
   xml:space="preserve"
   style="enable-background:new 0 0 800 800;"
   viewBox="0 0 800 800"
   y="0px"
   x="0px"
   id="Layer_1"
   version="1.1"><metadata
   id="metadata17"><rdf:RDF><cc:Work
       rdf:about=""><dc:format>image/svg+xml</dc:format><dc:type
         rdf:resource="http://purl.org/dc/dcmitype/StillImage" /></cc:Work></rdf:RDF></metadata><defs
   id="defs15" /><sodipodi:namedview
   inkscape:current-layer="Layer_1"
   inkscape:window-maximized="1"
   inkscape:window-y="-11"
   inkscape:window-x="-11"
   inkscape:cy="396.42857"
   inkscape:cx="400"
   inkscape:zoom="1.26"
   showgrid="false"
   id="namedview13"
   inkscape:window-height="2066"
   inkscape:window-width="3840"
   inkscape:pageshadow="2"
   inkscape:pageopacity="0"
   guidetolerance="10"
   gridtolerance="10"
   objecttolerance="10"
   borderopacity="1"
   bordercolor="#666666"
   pagecolor="#ffffff" />
<style
   id="style2"
   type="text/css">
	.st0{fill:#ED6B21;}
</style>
<g
   transform="matrix(1.15,0,0,1.15,-7.50075,-7.5)"
   id="g4">
	<path
   d="M595.3,699.6h-483C55.3,699.6,9,653.2,9,596.2V113.3C9,56.3,55.4,10,112.3,10h483   c57,0,103.4,46.4,103.4,103.3v483C698.6,653.3,652.3,699.6,595.3,699.6z M112.3,55.6c-31.8,0-57.7,25.8-57.7,57.7v483   c0,31.8,25.8,57.7,57.7,57.7h483c31.8,0,57.7-25.8,57.7-57.7v-483c0-31.8-25.8-57.7-57.7-57.7L112.3,55.6z"
   class="st0"
   id="path2" />
</g>
<g
   id="g10">
	<g
   id="g8">
		<path
   id="path6"
   d="M710.3,336.4h-83.7v-62.7c0-8.2-6.6-14.9-14.8-14.9H411.6l-35.4-76.1c-2.4-5.2-7.6-8.6-13.4-8.6h-249    c-8.2,0-14.8,6.7-14.8,14.9v422.8c0,8.1,6.6,14.9,14.8,14.9c0,0,0,0,0,0h498c6.1,0,11.6-3.8,13.8-9.6l98.5-260.6    C727.8,346.9,720.7,336.4,710.3,336.4z M128.6,204h224.9l35.4,76.1c2.4,5.2,7.6,8.6,13.4,8.6H597v47.7H212.3    c-6.1,0-11.6,3.8-13.8,9.6l-69.9,185V204z M601.6,597H135.3l87.2-230.7c21.3,0,445.1,0,466.4,0L601.6,597z"
   class="st0" />
	</g>
</g>
<path
   id="path19"
   d="m 109.12698,625.39512 c -3.96576,-1.40225 -7.95402,-5.64615 -9.06456,-9.64558 -1.218925,-4.38977 -1.190368,-426.41827 0.0292,-430.81101 1.1448,-4.12359 5.82447,-8.75335 9.97827,-9.87185 2.3412,-0.63042 39.08369,-0.8206 129.73313,-0.67151 l 126.46687,0.208 3.78827,2.2268 c 4.35925,2.56242 2.69999,-0.6088 26.76087,51.14622 l 14.482,31.15079 H 512.9396 614.57821 l 3.47755,1.68346 c 2.09387,1.01362 4.32512,2.96379 5.60772,4.90128 l 2.13017,3.21784 0.22291,33.9876 0.2229,33.9876 h 43.65792 c 41.88582,0 43.78245,0.0635 46.72588,1.56516 5.3578,2.73334 8.5384,8.54297 7.77518,14.20198 -0.32706,2.425 -94.35769,252.54619 -99.17385,263.80213 -1.92724,4.50418 -5.80653,8.12816 -9.92512,9.2719 -2.06379,0.57312 -80.89434,0.82305 -252.99788,0.80211 -213.41351,-0.0259 -250.46459,-0.19468 -253.17461,-1.15292 z m 536.317,-143.05607 c 23.90292,-63.1833 43.45649,-115.14719 43.45238,-115.4753 -0.004,-0.32812 -105.07793,-0.50669 -233.49738,-0.39683 l -233.48992,0.19975 -43.49387,115.07936 c -23.92162,63.29365 -43.49402,115.16865 -43.49421,115.27778 -1.9e-4,0.10913 105.08894,0.19741 233.5314,0.19619 l 233.53175,-0.002 43.45985,-114.87873 z M 161.90459,444.04762 c 17.56159,-46.4881 33.31637,-88.11352 35.01062,-92.50095 3.21458,-8.32446 6.12601,-12.15892 10.47773,-13.79958 1.55329,-0.58561 61.35807,-0.84233 196.23016,-0.84233 h 193.99595 v -24.20635 -24.20635 h -98.12221 c -74.55031,0 -98.89331,-0.23103 -101.33207,-0.96169 -5.16862,-1.54856 -7.61145,-4.82322 -14.19479,-19.02835 -3.36017,-7.25036 -11.53058,-24.8258 -18.15646,-39.05653 L 353.76645,203.57143 H 241.16894 128.57143 l 0.0503,164.0873 c 0.0277,90.24802 0.34334,163.37302 0.7015,162.5 0.35816,-0.87302 15.01977,-39.62302 32.58136,-86.11111 z"
   style="fill:#ed6b21;fill-opacity:1;stroke-width:0.793651" /><path
   id="path21"
   d="m 107.53968,795.89235 c -1.30952,-0.16411 -5.9097,-1.02995 -10.222617,-1.92409 C 75.334113,789.41086 55.450455,778.6426 38.844372,762.30159 23.448652,747.15162 13.652606,730.64248 7.5803679,709.61279 2.8993571,693.40128 3.1286852,710.5595 3.389205,396.03175 l 0.238626,-288.09524 1.6910292,-7.621 C 13.020284,65.607325 32.57336,38.179863 62.16362,20.578306 75.204099,12.821269 93.178238,6.9235125 109.12698,5.1684704 114.79665,4.544565 199.23637,4.3666318 404.7619,4.5455021 l 287.69842,0.2503859 7.93651,1.8207896 c 22.88124,5.2494034 41.99908,15.2406164 57.676,30.1421654 19.96966,18.981989 32.58252,43.14324 36.33592,69.605257 0.65948,4.64947 0.83109,83.91353 0.64533,298.00098 l -0.25314,291.66667 -1.70311,6.8169 c -5.93509,23.756 -16.00049,42.20356 -31.70967,58.11657 -18.67423,18.91652 -40.92185,30.31542 -66.94372,34.2996 -6.5036,0.99576 -47.18333,1.1387 -296.03174,1.04016 -158.67064,-0.0629 -289.56349,-0.24851 -290.87302,-0.41263 z m 587.66773,-53.28288 c 20.60694,-6.38556 36.26242,-20.64917 44.00473,-40.09246 4.73495,-11.89088 4.43865,8.28325 4.43865,-302.22346 0,-256.8502 -0.12372,-285.48626 -1.25723,-291.00161 -4.50561,-21.922956 -20.87856,-41.080512 -41.83208,-48.9466 -12.50764,-4.695451 6.91158,-4.427671 -304.52973,-4.1993 -275.44504,0.201976 -285.49596,0.260298 -290.47619,1.685521 -16.036727,4.58933 -30.268055,14.4727 -38.808226,26.951534 -3.437268,5.022508 -8.255455,15.494605 -10.105101,21.962935 -1.42345,4.97791 -1.483249,15.11813 -1.705959,289.28572 -0.163843,201.69908 0.02021,286.08407 0.63444,290.87301 3.250454,25.34285 21.163386,46.91921 45.473036,54.77284 2.89947,0.93673 6.97578,1.9912 9.05846,2.34329 2.08267,0.35209 133.25096,0.59142 291.48509,0.53186 l 287.69841,-0.10831 z"
   style="fill:#ed6b21;fill-opacity:1;stroke-width:0.793651" /></svg>
