<?xml version="1.0" encoding="UTF-8" standalone="no"?>
<svg
   xmlns:dc="http://purl.org/dc/elements/1.1/"
   xmlns:cc="http://creativecommons.org/ns#"
   xmlns:rdf="http://www.w3.org/1999/02/22-rdf-syntax-ns#"
   xmlns:svg="http://www.w3.org/2000/svg"
   xmlns="http://www.w3.org/2000/svg"
   xmlns:sodipodi="http://sodipodi.sourceforge.net/DTD/sodipodi-0.dtd"
   xmlns:inkscape="http://www.inkscape.org/namespaces/inkscape"
   inkscape:version="1.0 (4035a4fb49, 2020-05-01)"
   sodipodi:docname="notification_folder.svg"
   xml:space="preserve"
   style="enable-background:new 0 0 800 800;"
   viewBox="0 0 800 800"
   y="0px"
   x="0px"
   id="Layer_1"
   version="1.1"><metadata
   id="metadata17"><rdf:RDF><cc:Work
       rdf:about=""><dc:format>image/svg+xml</dc:format><dc:type
         rdf:resource="http://purl.org/dc/dcmitype/StillImage" /></cc:Work></rdf:RDF></metadata><defs
   id="defs15" /><sodipodi:namedview
   inkscape:current-layer="Layer_1"
   inkscape:window-maximized="1"
   inkscape:window-y="-11"
   inkscape:window-x="-11"
   inkscape:cy="396.42857"
   inkscape:cx="400"
   inkscape:zoom="1.26"
   showgrid="false"
   id="namedview13"
   inkscape:window-height="2066"
   inkscape:window-width="3840"
   inkscape:pageshadow="2"
   inkscape:pageopacity="0"
   guidetolerance="10"
   gridtolerance="10"
   objecttolerance="10"
   borderopacity="1"
   bordercolor="#666666"
   pagecolor="#ffffff" />
<style
   id="style2"
   type="text/css">
	.st0{fill:#ED6B21;}
</style>
<g
   transform="matrix(1.15,0,0,1.15,-7.50075,-7.5)"
   id="g4">
	<path
   d="M566.7,657.5H146.2c-49.6,0-89.9-40.4-89.9-90V147.2c0-49.6,40.4-89.9,89.9-89.9h420.5   c49.6,0,90,40.4,90,89.9v420.5C656.6,617.2,616.3,657.5,566.7,657.5z M146.2,96.9c-27.7,0-50.2,22.5-50.2,50.2v420.5   c0,27.7,22.5,50.2,50.2,50.2h420.5c27.7,0,50.2-22.5,50.2-50.2V147.2c0-27.7-22.5-50.2-50.2-50.2L146.2,96.9z"
   class="st0"
   id="path2" />
</g>
<g
   id="g10">
	<g
   id="g8">
		<path
   id="path6"
   d="M673.1,347.7h-72.9v-54.5c0-7.2-5.8-13-12.9-13H413L382.2,214c-2.1-4.6-6.7-7.5-11.6-7.5H153.8    c-7.1,0-12.9,5.8-12.9,13v368c0,7.1,5.7,13,12.9,13c0,0,0,0,0,0h433.5c5.3,0,10.1-3.3,12-8.4l85.7-226.8    C688.3,356.8,682.1,347.7,673.1,347.7z M166.7,232.5h195.7l30.8,66.2c2.1,4.6,6.7,7.5,11.6,7.5h169.6v41.6H239.5    c-5.3,0-10.1,3.3-12,8.4l-60.9,161V232.5z M578.5,574.5h-406l75.9-200.8c18.5,0,387.5,0,406,0L578.5,574.5z"
   class="st0" />
	</g>
</g>
<path
   id="path19"
   d="M 143.25397,746.75313 C 100.3614,739.18489 66.56795,705.24766 59.218514,662.36014 58.056661,655.58017 57.936746,631.29416 57.939044,403.23316 57.941813,128.32722 57.649353,146.2264 62.383213,131.24109 66.304209,118.82894 71.362228,109.29545 79.800406,98.412698 93.771386,80.394267 112.45482,68.260171 136.4404,61.627435 l 7.60722,-2.103625 255.15621,-0.206848 c 283.03023,-0.229445 260.80573,-0.632431 277.74814,5.036272 35.57393,11.902571 61.75714,42.317636 68.90766,80.044856 1.2697,6.69912 1.36259,24.34026 1.36259,258.77651 0,242.92054 -0.0514,251.8607 -1.49255,259.52381 -4.09969,21.79989 -13.24627,39.29035 -28.66618,54.81668 -15.70826,15.81666 -34.23257,25.45773 -56.25475,29.27805 -6.2538,1.08488 -35.46695,1.2147 -259.12699,1.15151 -213.29346,-0.0602 -253.05547,-0.24359 -258.42778,-1.19152 z m 508.78632,-44.03338 c 13.02981,-1.81229 23.6684,-7.22733 33.27717,-16.93808 9.4792,-9.5798 14.28949,-19.00064 16.2535,-31.83203 0.59105,-3.86146 0.77798,-80.70662 0.61778,-253.94964 -0.21849,-236.26071 -0.29941,-248.64564 -1.65405,-253.1746 -6.12209,-20.46789 -22.19313,-36.30784 -41.98103,-41.3774 -5.57629,-1.42861 -14.45583,-1.47975 -256.96636,-1.47975 H 150.39683 l -5.95239,1.85863 c -19.81405,6.1869 -34.10783,20.76303 -40.20434,40.99852 -1.3685,4.54231 -1.44484,16.21689 -1.65556,253.17078 -0.24105,271.06405 -0.48659,255.49304 4.21139,267.06731 7.53086,18.55355 25.56483,32.76199 45.21655,35.6248 7.20974,1.05031 492.48312,1.08082 500.02781,0.0314 z"
   style="fill:#ed6b21;fill-opacity:1;stroke-width:0.793651" /><path
   id="path21"
   d="m 150.62806,599.61237 c -3.6788,-1.10895 -6.74399,-3.82518 -8.07747,-7.15788 -1.16597,-2.91403 -1.27958,-19.89674 -1.26769,-189.49436 l 0.013,-186.29346 1.77593,-3.17461 c 1.17015,-2.09174 2.98271,-3.78371 5.31384,-4.96031 l 3.53791,-1.78572 h 110.29555 110.29554 l 3.44881,1.66954 c 2.17649,1.05362 4.04931,2.73717 5.07654,4.56349 0.89525,1.59168 8.33613,17.35824 16.5353,35.03681 l 14.90757,32.14286 89.19504,0.39683 c 87.7157,0.39024 89.24111,0.42345 91.97281,2.00228 1.64504,0.95077 3.50597,3.0421 4.5635,5.12849 1.75296,3.4584 1.78571,4.044 1.78571,31.92628 v 28.40326 l 37.89683,0.013 c 37.72926,0.013 37.91086,0.0209 41.07142,1.78571 4.53766,2.53377 7.28209,8.17757 6.20244,12.75502 -0.42853,1.81688 -20.1514,54.5534 -43.8286,117.19228 -46.34187,122.59907 -44.41799,118.06312 -50.83069,119.84461 -3.45777,0.96059 -436.697,0.96636 -439.88334,0.006 z M 616.43523,475.39683 c 20.63792,-54.5635 37.72828,-99.83135 37.97857,-100.59524 0.4326,-1.32034 -9.58646,-1.38866 -202.97143,-1.38423 l -203.4265,0.005 -37.69841,99.72938 c -20.73413,54.85116 -37.81402,100.20689 -37.95531,100.79052 -0.21403,0.88405 33.6877,1.02777 203.14634,0.86119 l 203.40325,-0.19994 z m -418.84634,-38.9021 c 16.75318,-44.31283 31.12093,-81.65502 31.92831,-82.98266 0.80739,-1.32763 2.97845,-3.09956 4.82459,-3.93761 3.27578,-1.48702 7.41383,-1.52414 171.809,-1.54116 l 168.45238,-0.0174 V 326.98413 305.95238 H 488.8634 c -92.38992,0 -88.63238,0.16744 -92.76703,-4.13368 -1.05572,-1.09823 -8.95218,-17.13528 -17.54769,-35.6379 l -15.62819,-33.64112 -98.52374,-0.20151 -98.52373,-0.20151 v 142.46341 c 0,78.35488 0.28249,142.46342 0.62776,142.46342 0.34527,0 14.33492,-36.25594 31.08811,-80.56876 z"
   style="fill:#ed6b21;fill-opacity:1;stroke-width:0.793651" /></svg>
